<svg xmlns="http://www.w3.org/2000/svg" xmlns:xlink="http://www.w3.org/1999/xlink" width="274.483" height="77.141" viewBox="0 0 274.483 77.141">
  <defs>
    <clipPath id="clip-path">
      <rect id="Rectangle_1" data-name="Rectangle 1" width="274.483" height="77.141" fill="none"/>
    </clipPath>
  </defs>
  <g id="HOME_LOGO_" data-name="HOME LOGO " transform="translate(-39.685 -161.575)">
    <g id="Group_1" data-name="Group 1" transform="translate(39.685 161.575)" clip-path="url(#clip-path)">
      <path id="Path_1" data-name="Path 1" d="M442.2,193.483c6.957-5.444,14.839-9.684,13.009-20.6-.909-5.425-1.789-7.686-5.747-11.223a.375.375,0,0,0-.6.324c.757,6.717-3.816,12.008-3.941,18.787-.111,5.99.518,8.36-3.514,11.966-.641.573.134,1.211.79.75" transform="translate(-180.993 -161.575)" fill="#68b336"/>
      <path id="Path_2" data-name="Path 2" d="M409.044,236.819a13.208,13.208,0,0,1,.142,2.965,6.469,6.469,0,0,1-1.623,3.79c.778-.167,1.558-.353,2.34-.568a17.229,17.229,0,0,0,9.084-5.832c-.056.106-.126.211-.187.316.076-.109.135-.2.164-.246a13.614,13.614,0,0,0,.912-1.716,39.655,39.655,0,0,1-10.831,1.29" transform="translate(-169.165 -187.604)" fill="#68b336"/>
      <path id="Path_3" data-name="Path 3" d="M391.354,203.237c-.047-.075-.091-.149-.138-.226a64.078,64.078,0,0,0-6.924-8.5c-16.968-18.5-51.687-35.463-53.241-27.566a8.746,8.746,0,0,0,1.541,4.205,33.434,33.434,0,0,0,3.656,4.648c10.224,2.756,28.744,13.819,39.071,24.717,2.105.765,4.245,1.446,6.425,2.008a42.363,42.363,0,0,0,8.314,1.316c.533.028,1.054.048,1.554.053.043,0,.081,0,.123,0q-.176-.321-.381-.658" transform="translate(-142.235 -162.767)" fill="#68b336"/>
      <path id="Path_4" data-name="Path 4" d="M383.233,259.547l.032-.036a29.122,29.122,0,0,1-3.806,0,3.9,3.9,0,0,1-.353,2.083,9.211,9.211,0,0,0,4.072-1.989l.055-.059" transform="translate(-159.149 -196.045)" fill="#68b336"/>
      <path id="Path_5" data-name="Path 5" d="M341.7,268.894c-.477,2.05-3.5,3.736-2.457,4.783,1.318,1.33,7.4-1.815,9.279-5.73a34.749,34.749,0,0,1-8.294-3.011,4.077,4.077,0,0,1,1.473,3.958" transform="translate(-145.042 -197.954)" fill="#68b336"/>
      <path id="Path_6" data-name="Path 6" d="M335.5,249.67l.056.051a38.969,38.969,0,0,0,11.116,6.327c.244.093.5.179.75.27-4.062-6.118-10.857-7.577-12.121-7.189-.108.033-.136.08-.136.138a1.267,1.267,0,0,0,.284.349c.019.019.03.034.052.054" transform="translate(-143.683 -192.37)" fill="#68b336"/>
      <path id="Path_7" data-name="Path 7" d="M367.8,255.943l-.033.036c-.019.019-.034.038-.055.059a9.211,9.211,0,0,1-4.072,1.989,27.461,27.461,0,0,1-2.7.614c-2.879.513-8.048-.559-10.773-1.321-.95-.266-1.86-.574-2.749-.9-.25-.091-.505-.176-.75-.27a38.97,38.97,0,0,1-11.116-6.327l-.056-.051c-.021-.021-.032-.035-.051-.054a1.26,1.26,0,0,1-.284-.349l-.007,7.593a5.58,5.58,0,0,0,1.993,1.562q.821.469,1.718.929a34.717,34.717,0,0,0,8.294,3.011,34.269,34.269,0,0,0,6.556.806,19.11,19.11,0,0,0,8.893-2,13.345,13.345,0,0,0,5.247-5.339l-.057,0" transform="translate(-143.679 -192.477)" fill="#00833e"/>
      <path id="Path_8" data-name="Path 8" d="M334.924,222.01c3.706-.672,16.885,5.583,22.736,12.386a54.9,54.9,0,0,0,8.131,1.953c.514.08,1.037.142,1.56.2a42.132,42.132,0,0,0-5.164-6.876c-9.805-10.227-30.9-19.758-31.75-14.351a3.478,3.478,0,0,0,.134.91c.432,1.64,1.99,3.653,4.353,5.775" transform="translate(-142.019 -179.942)" fill="#68b336"/>
      <path id="Path_9" data-name="Path 9" d="M382.205,236.194c-.783.215-1.562.4-2.341.568a40.345,40.345,0,0,1-13.067.64c-.522-.06-1.045-.122-1.559-.2a54.9,54.9,0,0,1-8.131-1.954c-9.087-2.89-17.715-7.876-22.736-12.385-2.363-2.123-3.921-4.135-4.353-5.776a3.444,3.444,0,0,1-.134-.91l-1.018,10.588c.513,4.738,12.405,12.7,24.817,16.075a41.508,41.508,0,0,0,8.093,1.422,29.02,29.02,0,0,0,3.806,0l-.032.036c.012-.012.023-.025.033-.036l.057-.005c.4-.027.8-.051,1.2-.1a38.319,38.319,0,0,0,12.748-4.042c2.35-1.166,8.971-5.055,11.51-9.434.061-.106.131-.21.188-.316a17.228,17.228,0,0,1-9.083,5.832" transform="translate(-141.466 -180.792)" fill="#00833e"/>
      <path id="Path_10" data-name="Path 10" d="M412.344,194.524c-1.206-.165-2.711,3.985-11.092,8.309a24.243,24.243,0,0,1-10.943,2.141c-.042,0-.081,0-.123,0-.5,0-1.021-.025-1.554-.052a42.277,42.277,0,0,1-8.314-1.316c-2.179-.562-4.319-1.242-6.425-2.007-10.471-3.8-20.022-9.88-28.591-15.909a65.741,65.741,0,0,1-10.48-8.809,33.506,33.506,0,0,1-3.656-4.648,8.742,8.742,0,0,1-1.541-4.206l-2.629,12.932c.218,2.968,2.493,5.451,4.356,7.464a64.859,64.859,0,0,0,10.564,8.886c8.912,6.225,18.774,12.1,30.127,14.686a42.56,42.56,0,0,0,8.646,1.066,39.708,39.708,0,0,0,10.831-1.29,42.859,42.859,0,0,0,6.077-2.087c11.17-4.806,15.338-15.08,14.749-15.161" transform="translate(-140.808 -163.846)" fill="#00833e"/>
      <path id="Path_11" data-name="Path 11" d="M48.353,186.512h7.506V191.8H48.353v15.275H42.539v-37H57.92v5.285H48.353Z" transform="translate(-40.69 -164.566)" fill="#00833e"/>
      <path id="Path_12" data-name="Path 12" d="M78.043,185.667h7.981v5.285H78.043v10.835H88.085v5.286H72.229v-37H88.085v5.285H78.043Z" transform="translate(-51.139 -164.567)" fill="#00833e"/>
      <path id="Path_13" data-name="Path 13" d="M109.692,185.667h7.981v5.285h-7.981v10.835h10.043v5.286H103.877v-37h15.857v5.285H109.692Z" transform="translate(-62.278 -164.567)" fill="#00833e"/>
      <path id="Path_14" data-name="Path 14" d="M135.525,170.075h9.2c5.815,0,8.668,3.224,8.668,9.143V197.93c0,5.92-2.853,9.143-8.668,9.143h-9.2Zm5.814,5.285v26.427h3.277c1.85,0,2.96-.951,2.96-3.593v-19.24c0-2.643-1.11-3.594-2.96-3.594Z" transform="translate(-73.417 -164.567)" fill="#00833e"/>
      <path id="Path_15" data-name="Path 15" d="M187.824,178.584v1.321c0,3.805-1.163,6.237-3.753,7.452,3.119,1.216,4.335,4.018,4.335,7.929V198.3c0,5.708-3.013,8.774-8.827,8.774h-9.144v-37h8.774c6.025,0,8.614,2.8,8.614,8.509m-11.575-3.224v9.778h2.273c2.166,0,3.488-.951,3.488-3.911v-2.061c0-2.643-.9-3.805-2.96-3.805Zm0,15.064v11.363h3.33c1.956,0,3.013-.9,3.013-3.646v-3.224c0-3.436-1.11-4.493-3.753-4.493Z" transform="translate(-85.704 -164.567)" fill="#00833e"/>
      <path id="Path_16" data-name="Path 16" d="M223.166,207.073H217.3l-1-6.712h-7.135l-1,6.712h-5.339l5.92-37h8.509ZM209.9,195.339h5.6l-2.8-18.71Z" transform="translate(-97.102 -164.567)" fill="#00833e"/>
      <path id="Path_17" data-name="Path 17" d="M256.535,193.048v4.916c0,5.919-2.961,9.3-8.67,9.3s-8.667-3.383-8.667-9.3v-19.24c0-5.92,2.96-9.3,8.667-9.3s8.67,3.383,8.67,9.3v3.595h-5.5v-3.965c0-2.643-1.163-3.647-3.013-3.647s-3.013,1-3.013,3.647v19.979c0,2.643,1.163,3.594,3.013,3.594s3.013-.951,3.013-3.594v-5.285Z" transform="translate(-109.906 -164.337)" fill="#00833e"/>
      <path id="Path_18" data-name="Path 18" d="M280.658,192.326l-1.8,3.383v11.363h-5.814v-37h5.814v16.12l7.611-16.12h5.814L284.2,186.565l8.086,20.507h-5.972Z" transform="translate(-121.82 -164.567)" fill="#00833e"/>
      <path id="Path_19" data-name="Path 19" d="M39.685,244.473h11.23v3.3h-3.8V267.6H43.484v-19.82h-3.8Z" transform="translate(-39.685 -190.752)" fill="#00833e"/>
      <path id="Path_20" data-name="Path 20" d="M62.064,249.879c0-3.7,1.949-5.814,5.516-5.814s5.517,2.114,5.517,5.814V261.9c0,3.7-1.949,5.813-5.517,5.813s-5.516-2.113-5.516-5.813ZM65.7,262.134c0,1.651.727,2.278,1.883,2.278s1.883-.628,1.883-2.278V249.648c0-1.652-.726-2.28-1.883-2.28S65.7,248,65.7,249.648Z" transform="translate(-47.562 -190.609)" fill="#00833e"/>
      <path id="Path_21" data-name="Path 21" d="M95.1,244.473h11.231v3.3h-3.8V267.6H98.9v-19.82H95.1Z" transform="translate(-59.189 -190.752)" fill="#00833e"/>
      <path id="Path_22" data-name="Path 22" d="M121.572,267.6h-3.633V244.474h3.633v9.909H125.7v-9.909h3.7V267.6h-3.7v-9.91h-4.129Z" transform="translate(-67.227 -190.752)" fill="#00833e"/>
      <path id="Path_23" data-name="Path 23" d="M146.4,254.217h4.988v3.3H146.4v6.772h6.276v3.3h-9.91V244.473h9.91v3.3H146.4Z" transform="translate(-75.965 -190.752)" fill="#00833e"/>
      <path id="Path_24" data-name="Path 24" d="M179.177,254.746h4.691v3.3h-4.691V267.6h-3.634V244.474h9.613v3.3h-5.979Z" transform="translate(-87.502 -190.752)" fill="#00833e"/>
      <path id="Path_25" data-name="Path 25" d="M199.518,244.473V262.31c0,1.652.726,2.246,1.883,2.246s1.883-.594,1.883-2.246V244.473h3.435v17.606c0,3.7-1.849,5.814-5.418,5.814s-5.418-2.115-5.418-5.814V244.473Z" transform="translate(-94.661 -190.752)" fill="#00833e"/>
      <path id="Path_26" data-name="Path 26" d="M217.859,244.473h11.23v3.3h-3.8V267.6h-3.633v-19.82h-3.8Z" transform="translate(-102.396 -190.752)" fill="#00833e"/>
      <path id="Path_27" data-name="Path 27" d="M244.076,244.473V262.31c0,1.652.726,2.246,1.883,2.246s1.883-.594,1.883-2.246V244.473h3.436v17.606c0,3.7-1.85,5.814-5.418,5.814s-5.418-2.115-5.418-5.814V244.473Z" transform="translate(-110.344 -190.752)" fill="#00833e"/>
      <path id="Path_28" data-name="Path 28" d="M271.644,267.6a7.12,7.12,0,0,1-.33-2.841v-3.633c0-2.148-.727-2.94-2.378-2.94H267.68V267.6h-3.634V244.474h5.483c3.766,0,5.385,1.75,5.385,5.318v1.816c0,2.379-.76,3.932-2.378,4.69,1.817.76,2.412,2.51,2.412,4.922v3.567a6.8,6.8,0,0,0,.4,2.808Zm-3.963-19.82v7.1h1.42c1.354,0,2.18-.595,2.18-2.444v-2.28c0-1.651-.562-2.378-1.849-2.378Z" transform="translate(-118.652 -190.752)" fill="#00833e"/>
      <path id="Path_29" data-name="Path 29" d="M291.232,254.217h4.988v3.3h-4.988v6.772h6.276v3.3H287.6V244.473h9.91v3.3h-6.276Z" transform="translate(-126.942 -190.752)" fill="#00833e"/>
    </g>
  </g>
</svg>
