<svg xmlns="http://www.w3.org/2000/svg" xmlns:xlink="http://www.w3.org/1999/xlink" width="360.939" height="101.438" viewBox="0 0 360.939 101.438">
  <defs>
    <clipPath id="clip-path">
      <rect id="Rectangle_909" data-name="Rectangle 909" width="360.939" height="101.438" fill="none"/>
    </clipPath>
  </defs>
  <g id="white_logo_home" data-name="white logo home" transform="translate(-61.472 -345.241)">
    <g id="Group_7559" data-name="Group 7559" transform="translate(61.472 345.241)" clip-path="url(#clip-path)">
      <path id="Path_5254" data-name="Path 5254" d="M437.108,387.2c9.148-7.158,19.513-12.733,17.106-27.1-1.2-7.132-2.353-10.106-7.558-14.757a.493.493,0,0,0-.784.426c1,8.833-5.017,15.791-5.182,24.705-.146,7.877.682,10.994-4.622,15.735-.843.754.177,1.592,1.039.986" transform="translate(-93.627 -345.241)" fill="#fff"/>
      <path id="Path_5255" data-name="Path 5255" d="M406.372,415.881a17.345,17.345,0,0,1,.187,3.9,8.52,8.52,0,0,1-2.134,4.984c1.022-.218,2.048-.463,3.076-.746a22.66,22.66,0,0,0,11.946-7.669c-.075.139-.168.277-.248.415.1-.142.177-.256.216-.323a17.821,17.821,0,0,0,1.2-2.256,52.2,52.2,0,0,1-14.242,1.7" transform="translate(-90.936 -351.164)" fill="#fff"/>
      <path id="Path_5256" data-name="Path 5256" d="M412.393,398.728c-.061-.1-.119-.2-.182-.3a84.287,84.287,0,0,0-9.1-11.173c-22.314-24.324-67.968-46.633-70.01-36.248a11.5,11.5,0,0,0,2.026,5.53,44.1,44.1,0,0,0,4.807,6.113c13.444,3.624,37.8,18.171,51.379,32.5,2.769,1.005,5.581,1.9,8.448,2.638a55.534,55.534,0,0,0,10.933,1.731c.7.037,1.385.064,2.043.069.056,0,.106,0,.161,0-.153-.281-.322-.569-.5-.865" transform="translate(-84.808 -345.512)" fill="#fff"/>
      <path id="Path_5257" data-name="Path 5257" d="M383.32,436.588l.043-.047a38.115,38.115,0,0,1-5.006,0,5.121,5.121,0,0,1-.463,2.74c3.229-.916,4.709-1.957,5.355-2.615l.071-.077" transform="translate(-88.657 -353.085)" fill="#fff"/>
      <path id="Path_5258" data-name="Path 5258" d="M344.046,446.8c-.627,2.695-4.6,4.912-3.233,6.29,1.735,1.75,9.739-2.387,12.2-7.534A45.7,45.7,0,0,1,342.11,441.6c1.964,1.852,2.274,3.752,1.937,5.2" transform="translate(-85.447 -353.519)" fill="#fff"/>
      <path id="Path_5259" data-name="Path 5259" d="M337.371,427.6c.019.019.05.046.072.067a51.259,51.259,0,0,0,14.618,8.32c.322.123.658.235.987.354-5.343-8.044-14.279-9.964-15.941-9.452-.142.044-.18.105-.18.181a1.666,1.666,0,0,0,.375.459c.026.026.039.043.069.071" transform="translate(-85.137 -352.249)" fill="#fff"/>
      <path id="Path_5260" data-name="Path 5260" d="M379.845,435.729c-.014.016-.029.031-.045.048s-.044.049-.071.077c-.645.658-2.125,1.7-5.355,2.615a35.909,35.909,0,0,1-3.546.808c-3.785.675-10.582-.735-14.167-1.738-1.25-.349-2.446-.753-3.613-1.177-.328-.119-.665-.231-.987-.354a51.255,51.255,0,0,1-14.618-8.321c-.022-.02-.053-.047-.072-.066s-.043-.047-.069-.072a1.657,1.657,0,0,1-.375-.459l-.007,9.985a7.3,7.3,0,0,0,2.619,2.055q1.08.618,2.26,1.223a45.674,45.674,0,0,0,10.906,3.96,45.15,45.15,0,0,0,8.622,1.06,25.158,25.158,0,0,0,11.694-2.629,17.56,17.56,0,0,0,6.9-7.021l-.075.006" transform="translate(-85.136 -352.273)" fill="#fff"/>
      <path id="Path_5261" data-name="Path 5261" d="M338.423,404.739c4.873-.883,22.2,7.342,29.9,16.286a72.262,72.262,0,0,0,10.693,2.569c.675.105,1.362.186,2.05.266a55.454,55.454,0,0,0-6.791-9.043c-12.894-13.448-40.628-25.981-41.75-18.87a4.593,4.593,0,0,0,.176,1.2c.568,2.157,2.617,4.8,5.725,7.6" transform="translate(-84.759 -349.42)" fill="#fff"/>
      <path id="Path_5262" data-name="Path 5262" d="M401.2,422.467c-1.029.282-2.055.527-3.077.746a53.014,53.014,0,0,1-17.183.841c-.687-.079-1.375-.16-2.05-.265a72.248,72.248,0,0,1-10.693-2.569c-11.948-3.8-23.294-10.358-29.9-16.286-3.108-2.792-5.157-5.439-5.725-7.6a4.6,4.6,0,0,1-.176-1.2l-1.34,13.922c.676,6.231,16.313,16.7,32.635,21.138a54.523,54.523,0,0,0,10.642,1.869,38.114,38.114,0,0,0,5.006,0l-.043.047.045-.047c.025,0,.05-.006.075-.006.526-.036,1.054-.069,1.581-.13a50.422,50.422,0,0,0,16.764-5.316c3.09-1.535,11.8-6.646,15.135-12.405.079-.139.172-.276.247-.415a22.672,22.672,0,0,1-11.945,7.669" transform="translate(-84.633 -349.614)" fill="#fff"/>
      <path id="Path_5263" data-name="Path 5263" d="M441.547,386.1c-1.585-.218-3.566,5.24-14.586,10.926-1.591.819-6.482,2.862-14.39,2.815-.055,0-.106,0-.163,0-.658-.005-1.342-.032-2.042-.069a55.554,55.554,0,0,1-10.934-1.731c-2.867-.738-5.678-1.633-8.447-2.638-13.77-5-26.328-12.992-37.6-20.92A86.3,86.3,0,0,1,339.606,362.9a43.9,43.9,0,0,1-4.807-6.113,11.5,11.5,0,0,1-2.027-5.529l-3.456,17c.284,3.9,3.277,7.168,5.728,9.815a85.3,85.3,0,0,0,13.891,11.686c11.72,8.185,24.687,15.915,39.617,19.311a55.919,55.919,0,0,0,11.369,1.4,52.167,52.167,0,0,0,14.243-1.7,56.071,56.071,0,0,0,7.988-2.743c14.69-6.32,20.171-19.831,19.4-19.937" transform="translate(-84.483 -345.758)" fill="#fff"/>
      <path id="Path_5264" data-name="Path 5264" d="M71.778,374.779h9.869v6.95H71.778v20.087H64.133V353.164H84.358v6.95H71.778Z" transform="translate(-61.701 -345.922)" fill="#fff"/>
      <path id="Path_5265" data-name="Path 5265" d="M99.457,373.667h10.495v6.95H99.457v14.248h13.2v6.952H91.811V353.164h20.85v6.95h-13.2Z" transform="translate(-64.079 -345.922)" fill="#fff"/>
      <path id="Path_5266" data-name="Path 5266" d="M128.961,373.667h10.495v6.95H128.961v14.248h13.206v6.952H121.315V353.164h20.851v6.95H128.961Z" transform="translate(-66.613 -345.922)" fill="#fff"/>
      <path id="Path_5267" data-name="Path 5267" d="M150.819,353.164h12.093c7.645,0,11.4,4.24,11.4,12.023v24.6c0,7.784-3.753,12.024-11.4,12.024H150.819Zm7.645,6.95v34.75h4.309c2.433,0,3.892-1.25,3.892-4.725v-25.3c0-3.475-1.459-4.726-3.892-4.726Z" transform="translate(-69.148 -345.922)" fill="#fff"/>
      <path id="Path_5268" data-name="Path 5268" d="M206.23,364.353v1.739c0,5-1.529,8.2-4.935,9.8,4.1,1.6,5.7,5.282,5.7,10.425v3.963c0,7.506-3.962,11.538-11.607,11.538H183.363V353.164H194.9c7.923,0,11.329,3.683,11.329,11.189m-15.221-4.239v12.857H194c2.848,0,4.587-1.25,4.587-5.143v-2.71c0-3.475-1.182-5-3.892-5Zm0,19.808v14.942h4.378c2.572,0,3.963-1.182,3.963-4.794v-4.24c0-4.518-1.46-5.908-4.935-5.908Z" transform="translate(-71.944 -345.922)" fill="#fff"/>
      <path id="Path_5269" data-name="Path 5269" d="M240.31,401.816h-7.716l-1.321-8.827h-9.381l-1.321,8.827h-7.02l7.785-48.652h11.188Zm-17.445-15.431h7.367l-3.684-24.6Z" transform="translate(-74.538 -345.922)" fill="#fff"/>
      <path id="Path_5270" data-name="Path 5270" d="M270.263,383.623v6.464c0,7.783-3.892,12.231-11.4,12.231s-11.4-4.448-11.4-12.231v-25.3c0-7.784,3.891-12.232,11.4-12.232s11.4,4.448,11.4,12.232v4.727h-7.228V364.3c0-3.475-1.529-4.8-3.963-4.8s-3.962,1.321-3.962,4.8v26.271c0,3.475,1.529,4.727,3.962,4.727s3.963-1.251,3.963-4.727v-6.95Z" transform="translate(-77.451 -345.869)" fill="#fff"/>
      <path id="Path_5271" data-name="Path 5271" d="M289.03,382.424l-2.363,4.448v14.944h-7.645V353.164h7.645v21.2l10.008-21.2h7.645l-10.634,21.684,10.634,26.967h-7.854Z" transform="translate(-80.162 -345.922)" fill="#fff"/>
      <path id="Path_5272" data-name="Path 5272" d="M61.472,422.521H76.24v4.344H71.245v26.062H66.467V426.865H61.472Z" transform="translate(-61.472 -351.88)" fill="#fff"/>
      <path id="Path_5273" data-name="Path 5273" d="M82.335,429.786c0-4.865,2.563-7.645,7.254-7.645s7.254,2.78,7.254,7.645V445.6c0,4.864-2.563,7.645-7.254,7.645s-7.254-2.781-7.254-7.645ZM87.113,445.9c0,2.171.956,3,2.476,3s2.476-.826,2.476-3v-16.42c0-2.171-.956-3-2.476-3s-2.476.825-2.476,3Z" transform="translate(-63.264 -351.848)" fill="#fff"/>
      <path id="Path_5274" data-name="Path 5274" d="M113.132,422.521H127.9v4.344h-4.995v26.062h-4.779V426.865h-4.995Z" transform="translate(-65.91 -351.88)" fill="#fff"/>
      <path id="Path_5275" data-name="Path 5275" d="M139.2,452.927h-4.778V422.521H139.2v13.031h5.43V422.521H149.5v30.405H144.63V439.9H139.2Z" transform="translate(-67.739 -351.88)" fill="#fff"/>
      <path id="Path_5276" data-name="Path 5276" d="M162.345,435.335H168.9v4.344h-6.559v8.9H170.6v4.344H157.566V422.521H170.6v4.344h-8.254Z" transform="translate(-69.728 -351.88)" fill="#fff"/>
      <path id="Path_5277" data-name="Path 5277" d="M192.9,436.03h6.169v4.345H192.9v12.552h-4.778V422.522h12.64v4.344H192.9Z" transform="translate(-72.353 -351.88)" fill="#fff"/>
      <path id="Path_5278" data-name="Path 5278" d="M211.866,422.522v23.455c0,2.172.955,2.954,2.476,2.954s2.476-.782,2.476-2.954V422.522h4.517v23.151c0,4.866-2.432,7.645-7.124,7.645s-7.123-2.78-7.123-7.645V422.522Z" transform="translate(-73.982 -351.881)" fill="#fff"/>
      <path id="Path_5279" data-name="Path 5279" d="M227.573,422.521h14.768v4.344h-4.995v26.062h-4.778V426.865h-5Z" transform="translate(-75.742 -351.88)" fill="#fff"/>
      <path id="Path_5280" data-name="Path 5280" d="M253.4,422.522v23.455c0,2.172.956,2.954,2.476,2.954s2.476-.782,2.476-2.954V422.522h4.518v23.151c0,4.866-2.433,7.645-7.125,7.645s-7.123-2.78-7.123-7.645V422.522Z" transform="translate(-77.551 -351.881)" fill="#fff"/>
      <path id="Path_5281" data-name="Path 5281" d="M280.622,452.926a9.344,9.344,0,0,1-.435-3.736v-4.777c0-2.824-.956-3.867-3.126-3.867h-1.652v12.379h-4.778V422.521h7.209c4.952,0,7.08,2.3,7.08,6.993V431.9c0,3.128-1,5.169-3.127,6.167,2.389,1,3.172,3.3,3.172,6.474v4.691a8.943,8.943,0,0,0,.521,3.691Zm-5.213-26.061V436.2h1.868c1.781,0,2.867-.782,2.867-3.214v-3c0-2.172-.739-3.127-2.432-3.127Z" transform="translate(-79.441 -351.88)" fill="#fff"/>
      <path id="Path_5282" data-name="Path 5282" d="M297.365,435.335h6.56v4.344h-6.56v8.9h8.254v4.344H292.588V422.521h13.031v4.344h-8.254Z" transform="translate(-81.328 -351.88)" fill="#fff"/>
    </g>
  </g>
</svg>
